<mxfile host="app.diagrams.net" agent="Mozilla/5.0 (Windows NT 10.0; Win64; x64) AppleWebKit/537.36 (KHTML, like Gecko) Chrome/131.0.0.0 Safari/537.36 Edg/131.0.0.0" version="24.8.3">
  <diagram name="第 1 页" id="HbvuxJpexQXpHqL3rPaI">
    <mxGraphModel dx="1188" dy="651" grid="1" gridSize="10" guides="1" tooltips="1" connect="1" arrows="1" fold="1" page="1" pageScale="1" pageWidth="827" pageHeight="1169" math="0" shadow="0">
      <root>
        <mxCell id="0" />
        <mxCell id="1" parent="0" />
        <mxCell id="FGRro3DLB332El5FIr0W-1" value="开始" style="ellipse;whiteSpace=wrap;html=1;fillColor=#ffe6cc;strokeColor=#d79b00;fontSize=15;" parent="1" vertex="1">
          <mxGeometry x="180" y="190" width="60" height="40" as="geometry" />
        </mxCell>
        <mxCell id="FGRro3DLB332El5FIr0W-2" style="edgeStyle=orthogonalEdgeStyle;rounded=0;orthogonalLoop=1;jettySize=auto;html=1;exitX=0.5;exitY=1;exitDx=0;exitDy=0;entryX=0.5;entryY=0;entryDx=0;entryDy=0;fontSize=15;" parent="1" source="FGRro3DLB332El5FIr0W-1" target="FGRro3DLB332El5FIr0W-4" edge="1">
          <mxGeometry relative="1" as="geometry">
            <mxPoint x="210" y="160" as="sourcePoint" />
          </mxGeometry>
        </mxCell>
        <mxCell id="FGRro3DLB332El5FIr0W-3" style="edgeStyle=orthogonalEdgeStyle;rounded=0;orthogonalLoop=1;jettySize=auto;html=1;entryX=0.5;entryY=0;entryDx=0;entryDy=0;fontSize=15;" parent="1" source="FGRro3DLB332El5FIr0W-4" target="FGRro3DLB332El5FIr0W-6" edge="1">
          <mxGeometry relative="1" as="geometry" />
        </mxCell>
        <mxCell id="FGRro3DLB332El5FIr0W-4" value="环境初始化&lt;div style=&quot;font-size: 15px;&quot;&gt;随机生成指定范围的无人机初始位置&lt;/div&gt;" style="rounded=0;whiteSpace=wrap;html=1;fillColor=#dae8fc;strokeColor=#6c8ebf;fontSize=15;" parent="1" vertex="1">
          <mxGeometry x="70" y="240" width="280" height="50" as="geometry" />
        </mxCell>
        <mxCell id="FGRro3DLB332El5FIr0W-5" style="edgeStyle=orthogonalEdgeStyle;rounded=0;orthogonalLoop=1;jettySize=auto;html=1;entryX=0.5;entryY=0;entryDx=0;entryDy=0;fontSize=15;" parent="1" source="FGRro3DLB332El5FIr0W-6" target="FGRro3DLB332El5FIr0W-8" edge="1">
          <mxGeometry relative="1" as="geometry" />
        </mxCell>
        <mxCell id="FGRro3DLB332El5FIr0W-6" value="我方无人机策略网络输入观测、输出控制指令&lt;div style=&quot;font-size: 15px;&quot;&gt;&lt;/div&gt;&lt;div style=&quot;font-size: 15px;&quot;&gt;敌方无人机按照随机弧形轨迹前往攻击位置&lt;/div&gt;" style="rounded=0;whiteSpace=wrap;html=1;fillColor=#dae8fc;strokeColor=#6c8ebf;fontSize=15;" parent="1" vertex="1">
          <mxGeometry x="55" y="310" width="310" height="50" as="geometry" />
        </mxCell>
        <mxCell id="FGRro3DLB332El5FIr0W-7" style="edgeStyle=orthogonalEdgeStyle;rounded=0;orthogonalLoop=1;jettySize=auto;html=1;exitX=0.5;exitY=1;exitDx=0;exitDy=0;entryX=0.5;entryY=0;entryDx=0;entryDy=0;fontSize=15;" parent="1" source="FGRro3DLB332El5FIr0W-8" target="FGRro3DLB332El5FIr0W-13" edge="1">
          <mxGeometry relative="1" as="geometry" />
        </mxCell>
        <mxCell id="FGRro3DLB332El5FIr0W-8" value="仿真环境中无人机执行动力学仿真" style="rounded=0;whiteSpace=wrap;html=1;fillColor=#dae8fc;strokeColor=#6c8ebf;fontSize=15;" parent="1" vertex="1">
          <mxGeometry x="90" y="380" width="240" height="50" as="geometry" />
        </mxCell>
        <mxCell id="FGRro3DLB332El5FIr0W-9" style="edgeStyle=orthogonalEdgeStyle;rounded=0;orthogonalLoop=1;jettySize=auto;html=1;exitX=1;exitY=0.5;exitDx=0;exitDy=0;entryX=0;entryY=0.5;entryDx=0;entryDy=0;fontSize=15;" parent="1" source="FGRro3DLB332El5FIr0W-13" target="FGRro3DLB332El5FIr0W-18" edge="1">
          <mxGeometry relative="1" as="geometry">
            <mxPoint x="330" y="490.2857142857142" as="targetPoint" />
          </mxGeometry>
        </mxCell>
        <mxCell id="FGRro3DLB332El5FIr0W-10" value="否" style="edgeLabel;html=1;align=center;verticalAlign=middle;resizable=0;points=[];fontSize=15;" parent="FGRro3DLB332El5FIr0W-9" vertex="1" connectable="0">
          <mxGeometry x="-0.105" y="-2" relative="1" as="geometry">
            <mxPoint x="-5" y="-12" as="offset" />
          </mxGeometry>
        </mxCell>
        <mxCell id="FGRro3DLB332El5FIr0W-11" style="edgeStyle=orthogonalEdgeStyle;rounded=0;orthogonalLoop=1;jettySize=auto;html=1;exitX=0.5;exitY=1;exitDx=0;exitDy=0;entryX=0.5;entryY=0;entryDx=0;entryDy=0;fontSize=15;" parent="1" source="FGRro3DLB332El5FIr0W-13" target="FGRro3DLB332El5FIr0W-25" edge="1">
          <mxGeometry relative="1" as="geometry">
            <mxPoint x="210" y="570" as="targetPoint" />
          </mxGeometry>
        </mxCell>
        <mxCell id="FGRro3DLB332El5FIr0W-12" value="是" style="edgeLabel;html=1;align=center;verticalAlign=middle;resizable=0;points=[];fontSize=15;" parent="FGRro3DLB332El5FIr0W-11" vertex="1" connectable="0">
          <mxGeometry x="-0.1857" relative="1" as="geometry">
            <mxPoint x="10" as="offset" />
          </mxGeometry>
        </mxCell>
        <mxCell id="FGRro3DLB332El5FIr0W-13" value="敌机达到攻击位置？" style="rhombus;whiteSpace=wrap;html=1;fillColor=#f8cecc;strokeColor=#b85450;fontSize=15;" parent="1" vertex="1">
          <mxGeometry x="145" y="440" width="130" height="80" as="geometry" />
        </mxCell>
        <mxCell id="FGRro3DLB332El5FIr0W-14" style="edgeStyle=orthogonalEdgeStyle;rounded=0;orthogonalLoop=1;jettySize=auto;html=1;exitX=0.5;exitY=0;exitDx=0;exitDy=0;entryX=1;entryY=0.5;entryDx=0;entryDy=0;fontSize=15;" parent="1" source="FGRro3DLB332El5FIr0W-18" target="FGRro3DLB332El5FIr0W-8" edge="1">
          <mxGeometry relative="1" as="geometry" />
        </mxCell>
        <mxCell id="FGRro3DLB332El5FIr0W-15" value="否" style="edgeLabel;html=1;align=center;verticalAlign=middle;resizable=0;points=[];fontSize=15;" parent="FGRro3DLB332El5FIr0W-14" vertex="1" connectable="0">
          <mxGeometry x="-0.4192" y="1" relative="1" as="geometry">
            <mxPoint x="12" y="16" as="offset" />
          </mxGeometry>
        </mxCell>
        <mxCell id="FGRro3DLB332El5FIr0W-16" style="edgeStyle=orthogonalEdgeStyle;rounded=0;orthogonalLoop=1;jettySize=auto;html=1;entryX=0.5;entryY=0;entryDx=0;entryDy=0;fontSize=15;" parent="1" source="FGRro3DLB332El5FIr0W-18" target="FGRro3DLB332El5FIr0W-23" edge="1">
          <mxGeometry relative="1" as="geometry" />
        </mxCell>
        <mxCell id="FGRro3DLB332El5FIr0W-17" value="是" style="edgeLabel;html=1;align=center;verticalAlign=middle;resizable=0;points=[];fontSize=15;" parent="FGRro3DLB332El5FIr0W-16" vertex="1" connectable="0">
          <mxGeometry x="-0.3458" relative="1" as="geometry">
            <mxPoint x="12" as="offset" />
          </mxGeometry>
        </mxCell>
        <mxCell id="FGRro3DLB332El5FIr0W-18" value="成功打击敌机？" style="rhombus;whiteSpace=wrap;html=1;fillColor=#f8cecc;strokeColor=#b85450;fontSize=15;" parent="1" vertex="1">
          <mxGeometry x="310" y="450" width="130" height="60" as="geometry" />
        </mxCell>
        <mxCell id="FGRro3DLB332El5FIr0W-19" style="edgeStyle=orthogonalEdgeStyle;rounded=0;orthogonalLoop=1;jettySize=auto;html=1;entryX=0.5;entryY=0;entryDx=0;entryDy=0;fontSize=15;" parent="1" source="FGRro3DLB332El5FIr0W-23" target="FGRro3DLB332El5FIr0W-27" edge="1">
          <mxGeometry relative="1" as="geometry" />
        </mxCell>
        <mxCell id="FGRro3DLB332El5FIr0W-20" value="是" style="edgeLabel;html=1;align=center;verticalAlign=middle;resizable=0;points=[];fontSize=15;" parent="FGRro3DLB332El5FIr0W-19" vertex="1" connectable="0">
          <mxGeometry x="-0.1792" y="2" relative="1" as="geometry">
            <mxPoint x="9" y="-5" as="offset" />
          </mxGeometry>
        </mxCell>
        <mxCell id="FGRro3DLB332El5FIr0W-21" style="edgeStyle=orthogonalEdgeStyle;rounded=0;orthogonalLoop=1;jettySize=auto;html=1;entryX=0;entryY=0.5;entryDx=0;entryDy=0;fontSize=15;" parent="1" source="FGRro3DLB332El5FIr0W-23" target="FGRro3DLB332El5FIr0W-29" edge="1">
          <mxGeometry relative="1" as="geometry" />
        </mxCell>
        <mxCell id="FGRro3DLB332El5FIr0W-22" value="否" style="edgeLabel;html=1;align=center;verticalAlign=middle;resizable=0;points=[];fontSize=15;" parent="FGRro3DLB332El5FIr0W-21" vertex="1" connectable="0">
          <mxGeometry x="-0.6978" y="1" relative="1" as="geometry">
            <mxPoint y="-9" as="offset" />
          </mxGeometry>
        </mxCell>
        <mxCell id="FGRro3DLB332El5FIr0W-23" value="我方发生碰撞？" style="rhombus;whiteSpace=wrap;html=1;fillColor=#f8cecc;strokeColor=#b85450;fontSize=15;" parent="1" vertex="1">
          <mxGeometry x="311.25" y="535" width="128.75" height="60" as="geometry" />
        </mxCell>
        <mxCell id="FGRro3DLB332El5FIr0W-24" style="edgeStyle=orthogonalEdgeStyle;rounded=0;orthogonalLoop=1;jettySize=auto;html=1;exitX=0.5;exitY=1;exitDx=0;exitDy=0;entryX=0;entryY=0.5;entryDx=0;entryDy=0;fontSize=15;" parent="1" source="FGRro3DLB332El5FIr0W-25" target="FGRro3DLB332El5FIr0W-30" edge="1">
          <mxGeometry relative="1" as="geometry" />
        </mxCell>
        <mxCell id="FGRro3DLB332El5FIr0W-25" value="对抗失败&lt;div&gt;任务失败&lt;/div&gt;" style="rounded=1;whiteSpace=wrap;html=1;fillColor=#d5e8d4;strokeColor=#82b366;fontSize=15;" parent="1" vertex="1">
          <mxGeometry x="150" y="545" width="120" height="40" as="geometry" />
        </mxCell>
        <mxCell id="FGRro3DLB332El5FIr0W-26" style="edgeStyle=orthogonalEdgeStyle;rounded=0;orthogonalLoop=1;jettySize=auto;html=1;exitX=0.5;exitY=1;exitDx=0;exitDy=0;entryX=0.5;entryY=0;entryDx=0;entryDy=0;fontSize=15;" parent="1" source="FGRro3DLB332El5FIr0W-27" target="FGRro3DLB332El5FIr0W-30" edge="1">
          <mxGeometry relative="1" as="geometry" />
        </mxCell>
        <mxCell id="FGRro3DLB332El5FIr0W-27" value="对抗成功&lt;div&gt;任务失败&lt;/div&gt;" style="rounded=1;whiteSpace=wrap;html=1;fillColor=#d5e8d4;strokeColor=#82b366;fontSize=15;" parent="1" vertex="1">
          <mxGeometry x="315.63" y="620" width="120" height="40" as="geometry" />
        </mxCell>
        <mxCell id="FGRro3DLB332El5FIr0W-28" style="edgeStyle=orthogonalEdgeStyle;rounded=0;orthogonalLoop=1;jettySize=auto;html=1;exitX=0.5;exitY=1;exitDx=0;exitDy=0;entryX=1;entryY=0.5;entryDx=0;entryDy=0;fontSize=15;" parent="1" source="FGRro3DLB332El5FIr0W-29" target="FGRro3DLB332El5FIr0W-30" edge="1">
          <mxGeometry relative="1" as="geometry" />
        </mxCell>
        <mxCell id="FGRro3DLB332El5FIr0W-29" value="对抗成功&lt;div&gt;任务成功&lt;/div&gt;" style="rounded=1;whiteSpace=wrap;html=1;fillColor=#d5e8d4;strokeColor=#82b366;fontSize=15;" parent="1" vertex="1">
          <mxGeometry x="470" y="545" width="120" height="40" as="geometry" />
        </mxCell>
        <mxCell id="FGRro3DLB332El5FIr0W-30" value="结束" style="ellipse;whiteSpace=wrap;html=1;fillColor=#ffe6cc;strokeColor=#d79b00;fontSize=15;" parent="1" vertex="1">
          <mxGeometry x="342.82" y="670" width="65.63" height="40" as="geometry" />
        </mxCell>
        <mxCell id="370ug751zeaEy-KsIYsY-1" value="" style="endArrow=classic;html=1;rounded=0;exitX=1;exitY=0.5;exitDx=0;exitDy=0;entryX=0;entryY=0.5;entryDx=0;entryDy=0;entryPerimeter=0;dashed=1;dashPattern=8 8;fontSize=15;" edge="1" parent="1" source="FGRro3DLB332El5FIr0W-8" target="370ug751zeaEy-KsIYsY-2">
          <mxGeometry width="50" height="50" relative="1" as="geometry">
            <mxPoint x="320" y="400" as="sourcePoint" />
            <mxPoint x="440" y="360" as="targetPoint" />
          </mxGeometry>
        </mxCell>
        <mxCell id="370ug751zeaEy-KsIYsY-6" value="经验采集" style="edgeLabel;html=1;align=center;verticalAlign=middle;resizable=0;points=[];fontSize=15;" vertex="1" connectable="0" parent="370ug751zeaEy-KsIYsY-1">
          <mxGeometry x="0.1651" y="2" relative="1" as="geometry">
            <mxPoint as="offset" />
          </mxGeometry>
        </mxCell>
        <mxCell id="370ug751zeaEy-KsIYsY-4" value="" style="edgeStyle=orthogonalEdgeStyle;rounded=0;orthogonalLoop=1;jettySize=auto;html=1;fontSize=15;" edge="1" parent="1" source="370ug751zeaEy-KsIYsY-2" target="370ug751zeaEy-KsIYsY-3">
          <mxGeometry relative="1" as="geometry" />
        </mxCell>
        <mxCell id="370ug751zeaEy-KsIYsY-2" value="多无人机经验回放池" style="shape=cylinder3;whiteSpace=wrap;html=1;boundedLbl=1;backgroundOutline=1;size=15;fillColor=#fff2cc;strokeColor=#d6b656;fontSize=15;" vertex="1" parent="1">
          <mxGeometry x="455" y="340" width="150" height="80" as="geometry" />
        </mxCell>
        <mxCell id="370ug751zeaEy-KsIYsY-5" style="rounded=0;orthogonalLoop=1;jettySize=auto;html=1;entryX=1;entryY=0.5;entryDx=0;entryDy=0;dashed=1;exitX=0;exitY=0.5;exitDx=0;exitDy=0;dashPattern=8 8;fontSize=15;" edge="1" parent="1" source="370ug751zeaEy-KsIYsY-3" target="FGRro3DLB332El5FIr0W-6">
          <mxGeometry relative="1" as="geometry" />
        </mxCell>
        <mxCell id="370ug751zeaEy-KsIYsY-7" value="网络更新" style="edgeLabel;html=1;align=center;verticalAlign=middle;resizable=0;points=[];fontSize=15;" vertex="1" connectable="0" parent="370ug751zeaEy-KsIYsY-5">
          <mxGeometry x="0.0814" y="-1" relative="1" as="geometry">
            <mxPoint as="offset" />
          </mxGeometry>
        </mxCell>
        <mxCell id="370ug751zeaEy-KsIYsY-3" value="经验采样、网络训练" style="whiteSpace=wrap;html=1;fillColor=#e1d5e7;strokeColor=#9673a6;fontSize=15;" vertex="1" parent="1">
          <mxGeometry x="460" y="280" width="140" height="40" as="geometry" />
        </mxCell>
      </root>
    </mxGraphModel>
  </diagram>
</mxfile>
